<!DOCTYPE svg PUBLIC "-//W3C//DTD SVG 20010904//EN" "http://www.w3.org/TR/2001/REC-SVG-20010904/DTD/svg10.dtd">
<svg version="1.0" xmlns="http://www.w3.org/2000/svg" width="599px" height="165px" viewBox="0 0 5990 1650" preserveAspectRatio="xMidYMid meet">
<g id="layer101" fill="#93c402" stroke="none">
 <path d="M0 825 l0 -825 2995 0 2995 0 0 825 0 825 -2995 0 -2995 0 0 -825z"/>
 </g>
<g id="layer102" fill="#a0cb0b" stroke="none">
 <path d="M0 825 l0 -825 2995 0 2995 0 0 825 0 825 -2995 0 -2995 0 0 -825z m1237 768 c-4 -3 -10 -3 -14 0 -3 4 0 7 7 7 7 0 10 -3 7 -7z m30 -10 c-4 -3 -10 -3 -14 0 -3 4 0 7 7 7 7 0 10 -3 7 -7z m263 -38 c30 -4 69 -9 85 -11 17 -2 53 -6 80 -10 28 -4 57 -7 65 -8 109 -14 128 -19 133 -37 6 -21 -4 -23 -51 -10 -29 9 -80 17 -167 26 -81 9 -375 73 -388 85 -4 3 36 -1 90 -11 54 -9 123 -20 153 -24z m167 19 c-3 -3 -12 -4 -19 -1 -8 3 -5 6 6 6 11 1 17 -2 13 -5z m120 -20 c-3 -3 -12 -4 -19 -1 -8 3 -5 6 6 6 11 1 17 -2 13 -5z m213 -13 c0 -4 -24 -6 -52 -4 -78 7 -82 11 -10 12 34 1 62 -3 62 -8z m163 2 c-29 -2 -77 -2 -105 0 -29 2 -6 3 52 3 58 0 81 -1 53 -3z m-183 -41 c-16 -6 -12 -22 5 -22 8 0 15 5 15 11 0 18 45 5 48 -15 3 -15 0 -18 -19 -13 -13 4 -52 7 -87 7 -40 0 -61 4 -57 10 3 6 1 10 -4 10 -6 0 -11 4 -11 10 0 5 26 8 60 7 33 -1 55 -3 50 -5z m144 -17 c-4 -9 -15 -20 -25 -26 -16 -8 -19 -6 -19 16 0 20 5 25 25 25 18 0 23 -4 19 -15z m86 6 c27 -8 34 -33 10 -36 -8 -2 -19 -4 -25 -5 -5 -1 -21 -2 -35 -1 l-25 2 23 11 c26 13 28 25 5 31 -15 4 -14 5 2 5 11 0 31 -3 45 -7z m150 -1 c0 -5 -4 -10 -10 -10 -5 0 -10 5 -10 10 0 6 5 10 10 10 6 0 10 -4 10 -10z m-1155 -14 c55 -3 225 -13 378 -23 277 -17 278 -17 274 -39 -3 -18 2 -23 26 -28 50 -10 77 -7 77 9 0 9 -9 15 -25 15 -16 0 -25 6 -25 15 0 19 86 21 125 3 25 -11 34 -28 15 -28 -5 0 -10 -4 -10 -10 0 -5 11 -10 25 -10 15 0 29 -9 36 -22 7 -13 12 -24 11 -25 -1 -2 -2 -9 -2 -15 0 -9 4 -8 10 2 7 10 10 -34 10 -132 0 -92 4 -148 10 -148 6 0 10 -9 10 -19 0 -11 -4 -23 -10 -26 -6 -3 -10 -48 -10 -101 0 -77 3 -94 15 -94 12 0 15 -16 15 -85 0 -69 -3 -85 -15 -85 -13 0 -15 -25 -15 -161 0 -116 -3 -158 -11 -153 -7 4 -10 1 -7 -6 6 -19 28 -24 28 -7 0 8 11 17 25 19 20 4 25 1 25 -15 0 -16 5 -18 30 -15 21 3 27 1 20 -7 -5 -6 -31 -12 -57 -14 -26 -1 -55 -9 -63 -17 -10 -10 -11 -14 -2 -14 7 0 12 -5 12 -11 0 -8 -4 -8 -15 1 -8 6 -14 15 -13 18 2 22 -5 22 -26 -1 -20 -22 -86 -50 -122 -52 -6 0 -20 -7 -30 -15 -14 -12 -16 -12 -9 -1 5 10 4 12 -4 7 -6 -4 -10 -15 -9 -24 3 -15 -8 -17 -77 -19 -69 -1 -159 -8 -175 -13 -3 -1 -18 -1 -34 0 -21 1 -26 -2 -21 -12 3 -7 -3 -2 -14 11 -17 19 -24 21 -35 11 -10 -7 -21 -8 -33 -2 -10 5 -23 7 -30 5 -7 -2 -22 1 -34 7 -17 10 -23 9 -30 -1 -6 -11 -14 -11 -39 -2 -20 7 -32 8 -36 1 -4 -6 -10 -5 -15 3 -5 9 -30 15 -66 16 -32 1 -60 2 -63 3 -3 1 -14 3 -25 4 -13 0 -20 8 -20 21 0 15 6 20 25 18 43 -3 89 -11 100 -18 5 -3 10 -1 10 6 0 7 6 5 13 -5 12 -17 14 -17 20 -2 4 9 14 16 23 16 13 0 14 -3 4 -15 -11 -13 -7 -15 23 -15 20 0 48 -5 63 -10 30 -12 47 -4 24 10 -9 6 -10 10 -3 10 6 0 15 -5 18 -10 3 -6 22 -10 41 -10 26 0 34 4 34 18 0 11 -8 17 -25 18 -14 1 -22 -2 -19 -7 3 -5 -7 -4 -21 1 -36 14 -45 13 -45 -6 0 -8 -5 -12 -10 -9 -6 4 -8 11 -5 16 4 5 -4 9 -17 10 -35 1 -79 8 -123 20 -22 5 -51 11 -65 13 -14 2 -53 7 -87 11 -35 4 -63 11 -63 15 0 5 -60 11 -132 14 -73 3 -153 8 -178 10 -25 3 -96 7 -158 9 -63 3 -116 7 -118 10 -3 3 -22 1 -42 -4 -20 -5 -71 -9 -112 -10 -41 0 -88 -1 -104 -1 -29 -1 -53 22 -35 33 6 3 13 25 16 48 3 22 9 41 13 41 8 0 5 -44 -5 -59 -3 -6 -2 -11 4 -11 14 0 29 95 33 205 0 28 5 56 11 63 6 7 6 12 0 12 -5 0 -8 21 -6 48 2 26 0 58 -5 72 -9 23 -10 22 -17 -17 -9 -55 -25 -56 -25 -1 0 56 -11 41 -16 -21 -2 -27 -5 -61 -8 -74 -5 -31 -70 -122 -115 -162 -54 -48 -69 -52 -29 -7 37 41 69 95 83 140 5 17 2 27 -10 36 -9 6 -19 31 -22 55 -6 43 -6 43 18 31 22 -12 23 -12 11 3 -8 9 -16 47 -19 86 -3 56 0 79 16 115 11 25 24 46 29 46 21 0 61 -43 67 -73 12 -53 47 -66 42 -14 -2 18 -8 31 -15 30 -7 -2 -12 2 -12 7 0 6 7 10 15 10 11 0 12 5 5 25 -7 18 -5 28 7 41 12 12 17 35 18 78 0 33 4 73 9 89 8 25 6 27 -22 27 -39 0 -46 12 -47 82 -1 51 2 57 21 62 13 4 26 15 29 26 6 18 15 20 83 19 42 -1 69 -3 60 -6 -27 -7 -21 -23 7 -21 16 2 24 7 21 15 -3 8 2 13 14 13 10 0 21 -9 25 -19 8 -25 39 -32 64 -14 12 8 21 11 21 7 0 -4 9 1 20 11 18 16 20 16 26 1 6 -16 8 -16 25 0 18 16 19 16 19 1 0 -10 3 -17 8 -18 4 0 17 -2 29 -3 13 -2 31 5 42 15 14 13 21 15 30 6 8 -8 11 -8 11 1 0 18 57 15 90 -5 26 -15 31 -15 72 0 24 9 63 19 87 23 35 6 40 9 26 17 -9 5 -33 7 -52 4 -29 -5 -34 -3 -29 9 3 9 9 26 12 38 6 25 -10 24 229 12z m-685 -32 c0 -5 -61 5 -69 12 -1 1 0 7 4 13 6 11 65 -12 65 -25z m238 0 c50 -1 67 -5 75 -19 8 -16 6 -17 -24 -12 -19 4 -63 7 -99 8 -36 1 -74 6 -85 11 -19 8 -18 8 2 4 16 -3 24 2 28 16 6 16 9 17 22 6 8 -7 45 -13 81 -14z m1499 -1 c-4 -3 -10 -3 -14 0 -3 4 0 7 7 7 7 0 10 -3 7 -7z m101 0 c-10 -2 -28 -2 -40 0 -13 2 -5 4 17 4 22 1 32 -1 23 -4z m-1488 -13 c0 -5 -4 -10 -10 -10 -5 0 -10 5 -10 10 0 6 5 10 10 10 6 0 10 -4 10 -10z m1007 -7 c-4 -3 -7 0 -7 7 0 7 3 10 7 7 3 -4 3 -10 0 -14z m548 -11 c-6 -7 -34 11 -29 19 3 5 11 3 19 -4 7 -6 12 -13 10 -15z m-318 1 c-4 -3 -10 -3 -14 0 -3 4 0 7 7 7 7 0 10 -3 7 -7z m350 0 c-4 -3 -10 -3 -14 0 -3 4 0 7 7 7 7 0 10 -3 7 -7z m-270 -10 c-4 -3 -10 -3 -14 0 -3 4 0 7 7 7 7 0 10 -3 7 -7z m73 -8 c0 -8 -5 -15 -11 -15 -6 0 -17 7 -25 15 -14 13 -13 15 10 15 16 0 26 -6 26 -15z m55 5 c4 -6 -5 -10 -19 -10 -14 0 -26 5 -26 10 0 6 9 10 19 10 11 0 23 -4 26 -10z m415 0 c0 -5 -9 -10 -20 -10 -11 0 -20 5 -20 10 0 6 9 10 20 10 11 0 20 -4 20 -10z m-251 -4 c-2 -2 -20 -6 -39 -10 -25 -4 -31 -3 -20 4 14 9 69 15 59 6z m-119 -16 c0 -5 -5 -10 -11 -10 -5 0 -7 5 -4 10 3 6 8 10 11 10 2 0 4 -4 4 -10z m-126 -12 c18 -17 0 -58 -26 -58 -21 0 -22 8 -8 44 11 29 15 31 34 14z m4 -105 c-2 -17 -10 -29 -20 -31 -14 -3 -18 3 -18 27 0 25 4 31 21 31 16 0 20 -5 17 -27z m1 -113 c1 -15 6 -31 12 -37 7 -7 7 -23 -1 -53 -12 -46 -16 -607 -5 -676 5 -31 4 -36 -5 -24 -9 12 -10 9 -5 -13 5 -24 3 -28 -12 -25 -25 5 -31 38 -32 192 -1 125 1 138 14 120 14 -18 14 -18 15 8 0 14 -4 28 -9 30 -5 2 -13 64 -17 138 -3 74 -11 141 -17 148 -7 9 -6 21 2 38 6 14 11 63 11 109 0 70 3 86 18 94 19 11 30 -6 31 -49z m-2041 -119 c3 -8 -1 -12 -9 -9 -7 2 -15 10 -17 17 -3 8 1 12 9 9 7 -2 15 -10 17 -17z m26 -388 c-4 -14 -8 -35 -9 -47 -4 -34 -5 -36 -16 -36 -6 0 -8 12 -5 28 12 68 19 91 27 86 5 -3 6 -17 3 -31z m-154 -80 c-11 -17 -11 -17 -6 0 3 10 6 24 7 30 0 9 2 9 5 0 3 -7 0 -20 -6 -30z m74 -160 c-7 -58 -21 -99 -31 -90 -5 5 28 147 34 147 2 0 0 -26 -3 -57z m2243 5 c-3 -8 -6 -5 -6 6 -1 11 2 17 5 13 3 -3 4 -12 1 -19z m-97 -88 c0 -5 -5 -10 -11 -10 -5 0 -7 5 -4 10 3 6 8 10 11 10 2 0 4 -4 4 -10z m-73 -17 c-4 -3 -10 -3 -14 0 -3 4 0 7 7 7 7 0 10 -3 7 -7z m-1640 -48 c-5 -33 -4 -35 19 -31 30 6 31 -2 2 -13 -21 -8 -19 -9 15 -16 21 -4 65 -5 97 -3 33 2 60 1 60 -3 0 -4 12 -10 28 -12 15 -3 -16 -5 -68 -5 -52 -1 -107 -3 -122 -5 -16 -3 -28 0 -28 7 0 6 -4 5 -9 -3 -6 -10 -13 -10 -29 -2 -15 8 -23 7 -32 -4 -7 -8 -9 -16 -4 -16 5 -1 -9 -5 -31 -8 -22 -4 -48 -3 -57 1 -11 5 -18 5 -18 -2 0 -5 -7 -10 -15 -10 -8 0 -15 -7 -15 -15 0 -15 -37 -21 -110 -16 -40 2 -100 30 -100 47 0 6 -3 25 -6 42 -6 29 -4 31 27 37 100 18 195 22 222 8 30 -15 52 -9 27 7 -13 8 -13 10 -1 10 8 0 23 -7 33 -17 10 -9 21 -13 26 -8 4 4 1 10 -5 12 -20 7 -15 23 6 23 10 0 21 -7 25 -15 3 -8 13 -15 23 -15 15 0 15 2 -3 15 -17 13 -18 14 -1 15 10 0 20 7 23 15 12 30 27 15 21 -20z m-390 -11 c-3 -3 -12 -4 -19 -1 -8 3 -5 6 6 6 11 1 17 -2 13 -5z m1910 -21 c-4 -3 -10 -3 -14 0 -3 4 0 7 7 7 7 0 10 -3 7 -7z m133 -22 c0 -10 -69 -25 -77 -17 -3 3 10 9 28 15 45 12 49 13 49 2z m197 2 c-4 -3 -10 -3 -14 0 -3 4 0 7 7 7 7 0 10 -3 7 -7z m-420 -20 c-4 -3 -7 0 -7 7 0 7 3 10 7 7 3 -4 3 -10 0 -14z m62 8 c9 -6 10 -11 2 -15 -6 -4 -11 -2 -11 5 0 6 -8 9 -20 6 -11 -3 -20 -1 -20 4 0 11 31 11 49 0z m71 -5 c0 -3 -5 -8 -12 -12 -7 -4 -8 -3 -4 4 7 12 16 16 16 8z m166 -15 c-10 -15 25 -22 88 -16 79 7 61 -2 -29 -13 -54 -7 -72 -6 -83 4 -18 18 -48 18 -56 -1 -6 -18 -56 -16 -56 1 0 15 71 28 99 19 11 -3 22 -1 26 5 3 5 8 10 11 10 3 0 3 -4 0 -9z m281 2 c-4 -3 -10 -3 -14 0 -3 4 0 7 7 7 7 0 10 -3 7 -7z m-2050 -20 c-4 -3 -10 -3 -14 0 -3 4 0 7 7 7 7 0 10 -3 7 -7z m1563 -3 c3 -1 8 -2 12 -2 3 1 9 -6 12 -14 4 -12 1 -14 -14 -9 -11 4 -20 2 -20 -2 0 -5 -16 -7 -36 -5 -32 4 -34 6 -19 21 12 15 43 20 65 11z m60 0 c0 -5 -4 -10 -10 -10 -5 0 -10 5 -10 10 0 6 5 10 10 10 6 0 10 -4 10 -10z m317 3 c-4 -3 -10 -3 -14 0 -3 4 0 7 7 7 7 0 10 -3 7 -7z m-217 -23 c-20 -13 -33 -13 -25 0 3 6 14 10 23 10 15 0 15 -2 2 -10z"/>
 <path d="M350 1360 c0 -5 7 -10 16 -10 8 0 12 5 9 10 -3 6 -10 10 -16 10 -5 0 -9 -4 -9 -10z"/>
 <path d="M2070 1350 c0 -6 -4 -8 -10 -5 -5 3 -10 -3 -10 -14 0 -12 -5 -21 -11 -21 -8 0 -8 -4 -1 -13 6 -7 10 -74 9 -175 -2 -116 1 -162 10 -162 7 0 10 -17 10 -45 -1 -25 1 -45 6 -45 4 0 7 20 7 45 0 43 1 45 30 45 17 0 30 5 30 10 0 6 -9 10 -21 10 -20 0 -21 4 -17 100 3 98 3 100 -19 100 -21 0 -23 5 -23 49 0 28 5 53 11 56 6 4 8 14 5 22 -4 9 -2 21 4 28 8 9 8 15 0 20 -5 3 -10 1 -10 -5z"/>
 <path d="M450 1330 c0 -5 4 -10 9 -10 6 0 13 5 16 10 3 6 -1 10 -9 10 -9 0 -16 -4 -16 -10z"/>
 <path d="M1907 1325 c-3 -7 -3 -29 0 -48 4 -28 9 -34 24 -30 10 3 19 14 19 24 0 11 4 19 9 19 5 0 11 6 14 14 4 9 0 12 -12 9 -10 -2 -25 2 -34 11 -13 13 -16 13 -20 1z"/>
 <path d="M2071 1264 c0 -11 3 -14 6 -6 3 7 2 16 -1 19 -3 4 -6 -2 -5 -13z"/>
 <path d="M2110 1248 c0 -7 3 -30 6 -50 7 -43 24 -51 24 -13 0 14 -5 25 -11 25 -7 0 -9 10 -7 25 3 14 1 25 -3 25 -5 0 -9 -6 -9 -12z"/>
 <path d="M1912 1123 c-2 -83 -2 -83 24 -83 14 0 23 4 19 10 -3 6 -12 10 -20 10 -11 0 -15 19 -18 73 l-3 72 -2 -82z"/>
 <path d="M1963 1023 c4 -3 10 -3 14 0 3 4 0 7 -7 7 -7 0 -10 -3 -7 -7z"/>
 <path d="M1910 990 c0 -5 7 -10 15 -10 8 0 15 5 15 10 0 6 -7 10 -15 10 -8 0 -15 -4 -15 -10z"/>
 <path d="M1960 950 c0 -7 3 -10 7 -7 3 4 3 10 0 14 -4 3 -7 0 -7 -7z"/>
 <path d="M186 884 c-9 -24 -7 -87 4 -104 7 -11 10 5 10 53 0 68 -3 80 -14 51z"/>
 <path d="M1923 893 c9 -2 25 -2 35 0 9 3 1 5 -18 5 -19 0 -27 -2 -17 -5z"/>
 <path d="M1911 754 c-9 -71 -10 -109 -3 -113 5 -3 12 -17 14 -31 3 -19 7 -12 16 28 15 64 16 162 2 162 -5 0 -10 9 -10 20 0 11 7 20 15 20 8 0 15 5 15 10 0 6 -8 10 -18 10 -16 0 -20 -15 -31 -106z"/>
 <path d="M2045 843 c3 -10 6 -112 6 -228 0 -152 3 -212 12 -217 9 -6 9 -8 0 -8 -7 0 -13 -10 -13 -22 0 -12 -6 -37 -12 -56 -10 -27 -10 -36 -1 -39 7 -2 10 -12 7 -21 -4 -12 -2 -11 7 3 7 11 15 22 18 25 3 3 6 13 7 23 0 9 1 35 2 57 2 37 4 40 32 40 17 0 30 5 30 10 0 6 -9 10 -20 10 -19 0 -20 7 -20 90 0 73 3 90 15 90 8 0 15 5 15 10 0 6 -16 10 -35 10 l-35 0 0 49 0 50 43 4 c35 3 38 5 20 11 -19 7 -23 16 -23 52 0 30 5 46 15 50 30 12 14 24 -31 24 -40 0 -45 -2 -39 -17z"/>
 <path d="M241 833 c-1 -6 -4 -20 -7 -30 -5 -17 -5 -17 6 0 6 10 9 23 6 30 -3 9 -5 9 -5 0z"/>
 <path d="M266 831 c-3 -5 1 -11 9 -14 9 -4 12 -1 8 9 -6 16 -10 17 -17 5z"/>
 <path d="M270 785 c0 -8 2 -15 4 -15 2 0 6 7 10 15 3 8 1 15 -4 15 -6 0 -10 -7 -10 -15z"/>
 <path d="M2150 690 c0 -22 5 -40 10 -40 6 0 10 18 10 40 0 22 -4 40 -10 40 -5 0 -10 -18 -10 -40z"/>
 <path d="M2073 670 c0 -25 2 -35 4 -22 2 12 2 32 0 45 -2 12 -4 2 -4 -23z"/>
 <path d="M1905 538 c-3 -24 -1 -56 4 -73 5 -16 10 -22 10 -12 1 9 5 17 10 17 5 0 11 14 15 31 4 22 1 38 -13 55 l-20 25 -6 -43z"/>
 <path d="M1912 420 c0 -8 4 -26 8 -40 6 -20 8 -21 8 -5 0 11 -3 29 -8 40 -5 12 -8 14 -8 5z"/>
 <path d="M1912 287 c-2 -56 -1 -58 21 -52 31 10 41 21 34 39 -9 22 -37 20 -39 -1 0 -10 -4 2 -8 27 l-7 45 -1 -58z"/>
 <path d="M1590 181 c0 -5 8 -11 18 -14 9 -2 25 -8 35 -12 14 -6 16 -4 10 11 -6 17 -5 17 10 5 15 -11 17 -11 17 2 0 10 -12 15 -45 15 -25 1 -45 -3 -45 -7z"/>
 <path d="M1705 180 c-3 -5 1 -10 10 -10 9 0 13 5 10 10 -3 6 -8 10 -10 10 -2 0 -7 -4 -10 -10z"/>
 <path d="M1781 180 c-10 -6 0 -10 32 -15 41 -6 87 -1 76 9 -11 9 -96 14 -108 6z"/>
 <path d="M2236 1044 c-9 -24 -7 -34 8 -34 13 0 26 20 26 41 0 15 -27 10 -34 -7z"/>
 <path d="M2241 924 c0 -11 3 -14 6 -6 3 7 2 16 -1 19 -3 4 -6 -2 -5 -13z"/>
 <path d="M2245 400 c3 -5 8 -10 11 -10 3 0 2 5 -1 10 -3 6 -8 10 -11 10 -3 0 -2 -4 1 -10z"/>
 <path d="M2074 128 c-4 -7 -3 -8 4 -4 7 4 12 9 12 12 0 8 -9 4 -16 -8z"/>
 </g>
<g id="layer103" fill="#fcfdf8" stroke="none">
 <path d="M0 825 l0 -825 2141 0 c1815 0 2140 2 2130 14 -9 11 -6 17 14 30 23 15 30 15 81 2 68 -18 74 -23 43 -35 -17 -7 15 -10 111 -10 81 0 129 3 121 8 -16 10 -6 31 15 31 18 0 18 16 0 23 -8 3 -20 -1 -26 -9 -16 -18 -30 -18 -30 1 0 17 3 17 -135 15 -72 0 -108 4 -129 15 -26 14 -31 14 -46 0 -9 -8 -32 -15 -50 -15 -18 0 -53 -11 -77 -26 -33 -19 -62 -26 -124 -30 -96 -7 -129 -1 -129 25 0 23 23 33 53 23 31 -11 46 -9 57 8 15 24 12 30 -19 30 -36 0 -57 22 -37 39 8 7 13 18 10 26 -3 7 -1 16 5 20 18 10 12 35 -8 35 -18 0 -33 -26 -45 -82 -8 -33 -54 -45 -112 -29 -22 6 -49 11 -61 11 -20 0 -18 -4 17 -40 21 -22 36 -41 32 -44 -4 -2 -50 -3 -102 -1 -73 2 -95 6 -95 16 0 9 13 14 40 15 48 1 75 11 75 29 0 7 -9 11 -23 8 -25 -5 -53 19 -42 37 3 5 22 10 41 10 23 0 33 4 28 11 -4 8 -26 9 -65 5 -58 -7 -70 -1 -47 22 9 9 6 12 -15 12 -32 0 -79 -22 -108 -51 -20 -20 -49 -26 -49 -9 0 6 10 15 23 19 20 8 20 10 4 16 -9 4 -32 5 -49 3 -40 -6 -98 9 -98 25 0 9 -33 12 -123 11 -157 -2 -157 -2 -157 -18 0 -29 -24 -36 -78 -22 -57 15 -117 19 -293 17 -92 -1 -116 -4 -116 -15 0 -10 6 -12 21 -7 12 4 41 8 66 9 70 3 29 -14 -80 -32 -264 -44 -568 -53 -545 -17 3 5 13 7 23 5 9 -3 26 2 37 10 12 9 15 15 7 16 -8 0 -10 5 -6 12 5 8 2 9 -12 3 -10 -5 -36 -9 -56 -10 -23 0 -46 -9 -60 -21 -21 -19 -32 -21 -109 -17 -73 5 -91 2 -127 -16 -45 -23 -56 -26 -48 -12 3 5 -3 11 -14 14 -11 3 -18 1 -14 -4 9 -15 -13 -10 -30 6 -11 12 -21 13 -34 6 -9 -5 -24 -6 -32 -2 -26 14 -75 20 -90 11 -7 -5 -24 -3 -38 3 -20 9 -26 9 -30 -1 -3 -10 -10 -9 -29 4 -19 12 -38 15 -69 10 -26 -3 -46 -1 -50 5 -3 6 -12 8 -19 5 -8 -3 -19 2 -25 10 -7 8 -19 14 -26 14 -23 0 -16 17 10 24 13 3 51 3 85 1 93 -8 73 11 -26 25 -49 6 -109 18 -135 26 -26 8 -82 14 -125 14 -43 0 -145 5 -228 12 -169 12 -404 12 -452 -1 -40 -11 -109 9 -91 27 14 14 -30 4 -50 -11 -23 -18 -24 1 -2 79 29 106 43 126 35 49 -3 -32 -9 -71 -12 -85 -5 -21 -4 -23 8 -14 8 6 22 10 32 9 13 -3 17 4 17 25 0 55 24 82 33 38 3 -14 4 -9 4 12 0 19 3 68 6 107 3 41 1 75 -4 79 -5 3 -7 10 -4 15 4 5 1 9 -4 9 -6 0 -11 -11 -11 -24 0 -13 -3 -31 -6 -40 -11 -28 -24 -17 -24 21 0 48 -15 32 -19 -21 -1 -5 -4 -7 -7 -3 -4 3 -23 -15 -43 -41 -38 -48 -109 -108 -117 -99 -3 2 16 28 40 57 25 30 53 73 62 98 16 40 16 46 2 70 -9 15 -18 41 -20 57 -2 24 1 30 16 28 13 -1 15 2 7 10 -6 6 -11 46 -11 90 0 63 5 87 22 118 l21 38 42 -24 c52 -31 69 -32 60 -5 -4 12 0 31 9 45 10 15 16 46 16 79 0 30 4 66 9 79 9 23 7 26 -32 35 l-42 11 2 67 c1 54 5 68 18 70 22 3 46 24 39 35 -3 5 43 9 104 9 101 0 110 -2 115 -20 6 -23 45 -28 53 -6 3 8 13 12 25 9 10 -3 19 0 19 6 0 15 27 14 33 -1 4 -10 8 -9 16 2 10 13 13 13 25 -2 16 -21 49 -23 68 -5 17 17 116 21 134 6 14 -12 34 -10 119 13 l50 13 -36 3 -36 3 11 40 c12 47 -14 45 336 24 299 -19 743 -29 630 -15 -203 26 -319 44 -475 76 -178 36 -273 59 -283 68 -14 15 11 13 103 -4 323 -63 915 -122 999 -99 58 15 225 29 350 29 102 0 128 -3 141 -16 11 -12 27 -15 55 -11 55 7 618 -9 790 -23 137 -12 230 -34 213 -51 -12 -12 -213 5 -221 18 -6 9 -18 9 -47 1 -58 -15 -154 -22 -135 -9 8 6 10 11 5 11 -6 0 -15 -4 -20 -9 -6 -4 -35 -6 -65 -2 -82 9 -739 -5 -780 -17 -26 -8 10 -10 145 -8 158 3 185 1 216 -15 53 -27 145 -38 310 -40 116 -1 153 2 177 15 25 13 64 16 192 16 99 0 169 4 182 11 16 8 22 8 29 -2 7 -12 163 -23 254 -17 83 5 359 -3 295 -9 -25 -2 -52 -6 -60 -9 -33 -12 15 -21 70 -14 30 4 93 4 140 -1 100 -10 147 -4 161 22 7 14 21 19 52 19 l42 -1 -22 -18 c-19 -16 -20 -20 -7 -25 9 -3 31 -6 50 -6 19 0 34 -4 34 -9 0 -15 -58 -24 -105 -17 -46 7 -73 -9 -32 -19 37 -10 309 2 340 14 16 6 57 11 92 11 35 0 76 5 91 10 16 6 31 7 38 1 13 -10 190 -24 289 -23 l67 1 -1 -50 c-2 -49 -2 -49 -36 -49 -22 0 -33 -5 -33 -14 0 -18 43 -33 48 -17 8 23 22 10 22 -20 l0 -31 -55 7 c-37 4 -55 3 -55 -5 0 -16 51 -32 83 -26 38 8 37 -24 -2 -57 -17 -14 -27 -27 -24 -30 3 -3 -6 -9 -20 -12 -32 -8 -58 -35 -34 -35 8 0 20 -7 27 -15 7 -8 28 -15 46 -15 27 0 34 -4 34 -19 0 -12 -9 -20 -29 -24 -16 -3 -31 -13 -35 -23 -5 -14 -1 -15 29 -10 41 8 49 -10 10 -20 -14 -3 -30 -14 -35 -24 -5 -9 -24 -21 -42 -25 -21 -4 -27 -9 -18 -12 21 -9 100 -93 100 -109 0 -7 9 -15 19 -19 20 -6 57 -93 45 -104 -4 -3 -9 -1 -11 5 -2 6 -11 20 -19 30 -15 18 -15 18 -11 -4 4 -15 -2 -27 -16 -37 -21 -15 -21 -15 6 -15 32 0 36 -17 5 -22 -11 -2 -22 -11 -24 -20 -1 -10 3 -15 10 -12 7 3 18 -2 25 -10 7 -8 19 -12 26 -9 9 3 17 -5 21 -22 9 -37 -4 -44 -29 -15 -12 14 -30 24 -39 22 -21 -4 -23 -13 -6 -30 17 -17 3 -26 -20 -13 -28 15 -52 14 -52 -2 0 -7 20 -18 45 -25 47 -12 57 -30 30 -52 -21 -18 -19 -33 5 -27 16 4 20 0 20 -20 0 -37 -85 -115 -149 -136 -50 -16 -53 -16 -72 2 -25 23 -65 32 -96 20 -15 -5 -27 -4 -35 4 -15 14 -33 16 -44 5 -14 -14 -45 -8 -92 18 l-47 27 30 -27 c34 -30 40 -29 -70 -7 -27 5 -72 12 -98 14 -45 4 -49 3 -64 -27 -8 -17 -40 -59 -70 -94 l-55 -62 606 0 606 0 0 825 0 825 -2995 0 -2995 0 0 -825z m1700 744 c25 -6 161 -13 303 -16 141 -3 257 -9 257 -14 0 -16 -370 -15 -480 2 -99 14 -160 30 -160 41 0 5 8 7 18 4 9 -3 37 -10 62 -17z m-1176 -109 c34 -13 33 -30 -1 -30 -35 0 -58 14 -49 29 9 14 17 14 50 1z m190 -6 c5 -13 19 -15 70 -13 41 3 69 -1 79 -9 12 -10 16 -10 20 0 3 10 7 10 17 1 34 -31 -43 -42 -203 -26 -56 5 -65 8 -55 20 6 8 17 12 24 9 6 -2 14 4 17 15 6 23 23 25 31 3z m2359 -61 c-13 -2 -33 -2 -45 0 -13 2 -3 4 22 4 25 0 35 -2 23 -4z m-2897 -70 c-7 -7 -26 7 -26 19 0 6 6 6 15 -2 9 -7 13 -15 11 -17z m62 -301 c3 -9 -3 -13 -19 -10 -12 1 -24 9 -27 16 -3 9 3 13 19 10 12 -1 24 -9 27 -16z m5389 -69 c-4 -3 -10 -3 -14 0 -3 4 0 7 7 7 7 0 10 -3 7 -7z m-5517 -363 c0 -37 -23 -85 -45 -94 -13 -5 -12 0 4 20 13 17 21 41 21 65 0 22 5 39 10 39 6 0 10 -14 10 -30z m5623 -160 c8 -25 18 -79 22 -121 6 -66 4 -81 -14 -117 -25 -49 -68 -83 -139 -111 -81 -32 -85 -24 -7 13 80 39 121 77 135 126 11 38 -1 145 -24 211 -14 41 -12 70 4 52 4 -4 15 -28 23 -53z m-19 -134 c12 -81 -6 -115 -86 -166 -35 -22 -68 -40 -75 -40 -6 0 -19 -7 -28 -17 -24 -23 -113 -36 -131 -19 -19 20 -1 32 69 45 69 12 170 64 199 100 17 23 19 35 13 94 -6 63 -5 68 12 65 14 -2 20 -17 27 -62z m-57 2 c-3 -8 -6 -5 -6 6 -1 11 2 17 5 13 3 -3 4 -12 1 -19z m-5037 -28 c0 -5 6 -10 13 -10 9 0 14 -12 15 -30 0 -16 -4 -30 -9 -30 -6 0 -8 -4 -5 -8 3 -5 42 -7 88 -6 51 1 96 -4 114 -11 l29 -13 -30 -2 c-16 -2 -68 -4 -115 -5 -47 -1 -120 -10 -164 -19 -43 -9 -86 -14 -96 -11 -21 7 -58 -6 -60 -20 -2 -29 -140 -29 -184 1 -25 15 -44 73 -38 110 3 22 29 34 67 33 13 0 8 -5 -15 -14 -44 -17 -39 -17 52 -5 40 5 105 12 143 15 124 9 160 15 163 25 5 13 32 13 32 0z m2960 -99 c0 -12 -20 -25 -27 -18 -7 7 6 27 18 27 5 0 9 -4 9 -9z m-189 -44 c-13 -13 -26 -3 -16 12 3 6 11 8 17 5 6 -4 6 -10 -1 -17z m1674 -17 c-3 -5 -15 -10 -26 -10 -11 0 -17 5 -14 10 3 6 15 10 26 10 11 0 17 -4 14 -10z m275 0 c8 -5 11 -10 5 -10 -5 0 -17 5 -25 10 -8 5 -10 10 -5 10 6 0 17 -5 25 -10z m-1736 -9 c7 -11 -22 -37 -51 -45 -26 -8 -29 2 -10 26 18 24 52 34 61 19z m1536 -11 c0 -5 -4 -10 -10 -10 -5 0 -10 5 -10 10 0 6 5 10 10 10 6 0 10 -4 10 -10z m-1720 -15 c0 -19 -16 -19 -24 0 -3 9 0 15 9 15 8 0 15 -7 15 -15z m-70 -15 c0 -5 -7 -10 -15 -10 -8 0 -15 5 -15 10 0 6 7 10 15 10 8 0 15 -4 15 -10z m1925 -10 c-3 -5 -13 -10 -21 -10 -8 0 -12 5 -9 10 3 6 13 10 21 10 8 0 12 -4 9 -10z m-1030 -10 c7 -11 -42 -37 -51 -27 -4 3 -4 13 -1 22 7 17 42 21 52 5z m1105 6 c0 -3 -4 -8 -10 -11 -5 -3 -10 -1 -10 4 0 6 5 11 10 11 6 0 10 -2 10 -4z m-865 -26 c3 -6 -1 -10 -9 -10 -8 0 -18 5 -21 10 -3 6 1 10 9 10 8 0 18 -4 21 -10z"/>
 <path d="M483 233 c4 -3 10 -3 14 0 3 4 0 7 -7 7 -7 0 -10 -3 -7 -7z"/>
 <path d="M610 219 c0 -5 5 -7 10 -4 6 3 10 8 10 11 0 2 -4 4 -10 4 -5 0 -10 -5 -10 -11z"/>
 <path d="M544 148 c-4 -7 -3 -8 4 -4 7 4 12 9 12 12 0 8 -9 4 -16 -8z"/>
 <path d="M2072 1430 c22 -13 164 -32 187 -25 10 3 42 6 71 6 102 3 24 16 -125 22 -97 4 -144 3 -133 -3z"/>
 <path d="M4183 1363 c4 -3 10 -3 14 0 3 4 0 7 -7 7 -7 0 -10 -3 -7 -7z"/>
 <path d="M4028 1353 c6 -2 18 -2 25 0 6 3 1 5 -13 5 -14 0 -19 -2 -12 -5z"/>
 <path d="M4170 1320 c-12 -8 -10 -10 10 -9 14 0 34 4 45 9 17 7 16 9 -10 9 -16 0 -37 -4 -45 -9z"/>
 <path d="M4404 1320 c-5 -5 -43 -11 -84 -13 -59 -2 -51 -3 40 -5 63 -1 126 -5 140 -8 22 -5 21 -3 -8 15 -35 22 -72 27 -88 11z"/>
 <path d="M3963 1313 c4 -3 10 -3 14 0 3 4 0 7 -7 7 -7 0 -10 -3 -7 -7z"/>
 <path d="M5095 1290 c-17 -7 -14 -9 13 -9 20 -1 31 3 27 9 -7 12 -13 12 -40 0z"/>
 <path d="M5228 1292 c-16 -2 -28 -8 -28 -13 0 -5 43 -9 98 -8 53 0 93 2 87 5 -19 8 -130 19 -157 16z"/>
 <path d="M5475 1040 c-3 -5 -1 -10 4 -10 6 0 11 5 11 10 0 6 -2 10 -4 10 -3 0 -8 -4 -11 -10z"/>
 <path d="M260 886 c0 -14 5 -28 10 -31 6 -4 10 7 10 24 0 17 -4 31 -10 31 -5 0 -10 -11 -10 -24z"/>
 <path d="M5515 820 c-19 -8 -19 -9 2 -9 12 -1 25 4 28 9 7 12 -2 12 -30 0z"/>
 <path d="M262 675 c-2 -28 1 -45 8 -45 6 0 9 4 6 9 -4 5 -2 20 2 33 5 12 7 29 5 36 -9 25 -18 11 -21 -33z"/>
 <path d="M230 700 c0 -7 3 -10 7 -7 3 4 3 10 0 14 -4 3 -7 0 -7 -7z"/>
 <path d="M223 653 c4 -3 10 -3 14 0 3 4 0 7 -7 7 -7 0 -10 -3 -7 -7z"/>
 <path d="M5345 400 c-3 -5 1 -10 9 -10 8 0 18 5 21 10 3 6 -1 10 -9 10 -8 0 -18 -4 -21 -10z"/>
 <path d="M5487 403 c-11 -11 -8 -63 4 -63 6 0 9 -6 6 -12 -2 -9 -23 -12 -71 -10 -52 3 -66 1 -64 -10 2 -7 -3 -12 -11 -10 -7 2 -24 -7 -37 -19 l-23 -22 26 -33 c18 -25 33 -34 54 -34 34 0 76 -15 95 -35 23 -22 40 -18 20 4 -17 18 -81 55 -98 56 -5 0 -8 5 -8 10 1 6 12 9 25 7 16 -2 34 6 50 22 32 32 38 32 58 4 14 -22 15 -21 12 25 -2 27 -6 51 -9 54 -3 4 -3 22 0 40 5 25 3 33 -8 33 -8 0 -18 -3 -21 -7z"/>
 <path d="M2480 341 c-8 -5 -49 -17 -90 -26 -41 -10 -86 -25 -100 -34 -34 -21 -99 -41 -116 -34 -10 4 -13 -2 -12 -18 2 -18 -2 -24 -17 -24 -13 0 -21 -8 -23 -22 -2 -13 -8 -23 -14 -23 -6 0 -9 -2 -6 -5 11 -12 37 7 31 23 -4 9 -3 14 1 11 6 -6 45 0 116 16 14 3 62 12 108 20 46 7 89 18 95 23 7 6 32 9 55 7 53 -3 62 12 39 61 -17 34 -37 42 -67 25z"/>
 <path d="M2113 233 c4 -3 10 -3 14 0 3 4 0 7 -7 7 -7 0 -10 -3 -7 -7z"/>
 <path d="M4634 218 c-4 -7 -3 -8 4 -4 7 4 12 9 12 12 0 8 -9 4 -16 -8z"/>
 <path d="M5023 213 c4 -3 10 -3 14 0 3 4 0 7 -7 7 -7 0 -10 -3 -7 -7z"/>
 <path d="M1344 198 c-4 -7 -3 -8 4 -4 12 7 16 16 8 16 -3 0 -8 -5 -12 -12z"/>
 <path d="M2083 203 c4 -3 10 -3 14 0 3 4 0 7 -7 7 -7 0 -10 -3 -7 -7z"/>
 <path d="M1395 192 c-13 -13 -3 -22 25 -22 17 0 30 4 30 9 0 10 -47 21 -55 13z"/>
 <path d="M1542 186 c-18 -6 -31 -14 -27 -17 10 -10 53 2 59 17 3 8 4 14 3 13 -1 0 -17 -6 -35 -13z"/>
 <path d="M5270 192 c0 -5 14 -12 30 -14 17 -3 30 -1 30 4 0 4 -6 8 -14 8 -8 0 -21 3 -30 6 -9 3 -16 2 -16 -4z"/>
 <path d="M1625 170 c3 -5 8 -10 11 -10 2 0 4 5 4 10 0 6 -5 10 -11 10 -5 0 -7 -4 -4 -10z"/>
 <path d="M1870 170 c0 -7 3 -10 7 -7 3 4 3 10 0 14 -4 3 -7 0 -7 -7z"/>
 <path d="M2335 174 c47 -7 175 -9 175 -2 0 5 -44 7 -97 7 -54 -1 -89 -3 -78 -5z"/>
 <path d="M5348 173 c6 -2 18 -2 25 0 6 3 1 5 -13 5 -14 0 -19 -2 -12 -5z"/>
 <path d="M2203 163 c9 -2 23 -2 30 0 6 3 -1 5 -18 5 -16 0 -22 -2 -12 -5z"/>
 <path d="M2273 163 c9 -2 23 -2 30 0 6 3 -1 5 -18 5 -16 0 -22 -2 -12 -5z"/>
 <path d="M2378 153 c7 -3 16 -2 19 1 4 3 -2 6 -13 5 -11 0 -14 -3 -6 -6z"/>
 </g>

</svg>